HIERARCHY
ROOT joint_Root
{
  OFFSET 0 0 0
  CHANNELS 6 Xposition Yposition Zposition Zrotation Xrotation Yrotation
  JOINT Hips
  {
    OFFSET 0 93.9241 -3
    CHANNELS 6 Xposition Yposition Zposition Zrotation Xrotation Yrotation
    JOINT Spine
    {
      OFFSET 15.7357 0 0
      CHANNELS 6 Xposition Yposition Zposition Zrotation Xrotation Yrotation
      JOINT Chest
      {
        OFFSET 8.98455 -0.406207 0
        CHANNELS 6 Xposition Yposition Zposition Zrotation Xrotation Yrotation
        JOINT Neck
        {
          OFFSET 16.3773 0 0
          CHANNELS 6 Xposition Yposition Zposition Zrotation Xrotation Yrotation
          JOINT Head
          {
            OFFSET 6.45672 0 0
            CHANNELS 6 Xposition Yposition Zposition Zrotation Xrotation Yrotation
            End Site
            {
              OFFSET 0 0 0
            }
          }
        }
        JOINT Shoulder_L
        {
          OFFSET 12.9942 -0.242716 4.98039
          CHANNELS 6 Xposition Yposition Zposition Zrotation Xrotation Yrotation
          JOINT UpperArm_L
          {
            OFFSET 5.34809 0 0
            CHANNELS 6 Xposition Yposition Zposition Zrotation Xrotation Yrotation
            JOINT LowerArm_L
            {
              OFFSET 24.3286 1.87007e-05 0
              CHANNELS 6 Xposition Yposition Zposition Zrotation Xrotation Yrotation
              JOINT Hand_L
              {
                OFFSET 22.2916 0 0
                CHANNELS 6 Xposition Yposition Zposition Zrotation Xrotation Yrotation
                End Site
                {
                  OFFSET 0 0 0
                }
              }
            }
          }
        }
        JOINT Shoulder_R
        {
          OFFSET 12.9945 -0.242716 -4.98039
          CHANNELS 6 Xposition Yposition Zposition Zrotation Xrotation Yrotation
          JOINT UpperArm_R
          {
            OFFSET -5.34813 0 0
            CHANNELS 6 Xposition Yposition Zposition Zrotation Xrotation Yrotation
            JOINT LowerArm_R
            {
              OFFSET -24.3289 0.000322201 0
              CHANNELS 6 Xposition Yposition Zposition Zrotation Xrotation Yrotation
              JOINT Hand_R
              {
                OFFSET -22.2915 -0.000108084 0
                CHANNELS 6 Xposition Yposition Zposition Zrotation Xrotation Yrotation
                End Site
                {
                  OFFSET 0 0 0
                }
              }
            }
          }
        }
      }
    }
    JOINT UpperLeg_L
    {
      OFFSET -2.19248 -6.46944 0
      CHANNELS 6 Xposition Yposition Zposition Zrotation Xrotation Yrotation
      JOINT LowerLeg_L
      {
        OFFSET 39.0811 0 -1.23785e-05
        CHANNELS 6 Xposition Yposition Zposition Zrotation Xrotation Yrotation
        JOINT Foot_L
        {
          OFFSET 40.9854 0 -1.26872e-05
          CHANNELS 6 Xposition Yposition Zposition Zrotation Xrotation Yrotation
          JOINT Toes_L
          {
            OFFSET 11.7543 0 0
            CHANNELS 6 Xposition Yposition Zposition Zrotation Xrotation Yrotation
            End Site
            {
              OFFSET 0 0 0
            }
          }
        }
      }
    }
    JOINT UpperLeg_R
    {
      OFFSET -2.19251 6.46944 0
      CHANNELS 6 Xposition Yposition Zposition Zrotation Xrotation Yrotation
      JOINT LowerLeg_R
      {
        OFFSET -39.0811 -0.00228153 -0.0401928
        CHANNELS 6 Xposition Yposition Zposition Zrotation Xrotation Yrotation
        JOINT Foot_R
        {
          OFFSET -40.9854 0 0
          CHANNELS 6 Xposition Yposition Zposition Zrotation Xrotation Yrotation
          JOINT Toes_R
          {
            OFFSET -11.7543 0 0
            CHANNELS 6 Xposition Yposition Zposition Zrotation Xrotation Yrotation
            End Site
            {
              OFFSET 0 0 0
            }
          }
        }
      }
    }
  }
}
MOTION
Frames:	5
Frame Time:	0.0333333
0 0 0 0 0 -0 -1.65984 91.0679 -9.5652 83.816 -24.4657 3.75664 15.7357 5.1072e-06 -5.51765e-07 106.963 82.5114 -105.733 8.98455 -0.406207 -4.3199e-07 6.52846 4.34299 2.21093 16.3773 -1.3905e-06 -6.99897e-07 -5.87149 -0.0137527 3.84269 6.45672 -1.25837e-06 -1.02172e-07 1.7875 -1.39827 3.8007 12.9942 -0.242716 4.98039 -90.3208 2.09193 -96.2809 5.34809 -7.22636e-06 -6.2814e-07 -76.4178 -6.86721 0.286659 24.3286 1.87007e-05 4.90208e-06 3.08233 12.9057 -13.5549 22.2916 -9.88446e-07 4.63217e-06 4.86757 5.12338 4.57243 12.9945 -0.242716 -4.98039 89.7616 4.44569 -101.927 -5.34813 -1.25947e-06 -3.79883e-06 -69.6971 2.55013 6.79917 -24.3289 0.000322201 -8.65921e-06 8.0931 19.8068 -22.7679 -22.2915 -0.000108084 -4.47941e-06 10.6562 5.36987 -1.982 -2.19248 -6.46944 -1.22534e-07 -170.679 -10.2518 -11.4573 39.0811 -6.73843e-06 -1.23785e-05 0.0282258 -0.0405285 34.2424 40.9854 -6.48686e-06 -1.26872e-05 -1.61203 -5.33148 -66.0177 11.7543 -2.30145e-07 3.05095e-06 0.117266 -0.133013 -17.8697 -2.19251 6.46944 -1.45247e-06 -168.563 8.95026 174.821 -39.0811 -0.00228153 -0.0401928 0.164957 -0.31347 23.7236 -40.9854 7.72618e-06 5.99936e-06 6.24913 -5.71429 -63.5242 -11.7543 -5.6619e-06 -5.58687e-06 0.00271573 -0.00280025 -16.5955 
0 0 0 0 0 -0 -1.83053 91.0909 -9.67788 83.7976 -25.6428 3.71926 15.7357 5.1072e-06 -5.51765e-07 107.721 82.5815 -106.506 8.98455 -0.406207 -4.3199e-07 6.33534 4.48767 2.17994 16.3773 -1.3905e-06 -6.99897e-07 -5.51195 0.143977 3.89864 6.45672 -1.25837e-06 -1.02172e-07 2.13098 -1.25668 3.89949 12.9942 -0.242716 4.98039 -90.312 1.98293 -96.0585 5.34809 -7.22636e-06 -6.2814e-07 -76.4079 -6.25149 0.534514 24.3286 1.87007e-05 4.90208e-06 3.00734 12.6469 -13.4931 22.2916 -9.88446e-07 4.63217e-06 4.29914 5.12585 4.51454 12.9945 -0.242716 -4.98039 89.759 4.44406 -101.894 -5.34813 -1.25947e-06 -3.79883e-06 -69.4444 2.97105 6.36899 -24.3289 0.000322201 -8.65921e-06 8.67339 19.5075 -24.5548 -22.2915 -0.000108084 -4.47941e-06 10.8828 5.37487 -2.13741 -2.19248 -6.46944 -1.22534e-07 -170.163 -7.93047 -11.346 39.0811 -6.73843e-06 -1.23785e-05 0.00401015 0.00374205 33.3907 40.9854 -6.48686e-06 -1.26872e-05 -3.78321 -4.6653 -65.495 11.7543 -2.30145e-07 3.05095e-06 0.105184 -0.119017 -17.735 -2.19251 6.46944 -1.45247e-06 -168.346 7.90593 175.057 -39.0811 -0.00228153 -0.0401928 0.163202 -0.315307 23.4302 -40.9854 7.72618e-06 5.99936e-06 6.44793 -5.6557 -63.2895 -11.7543 -5.6619e-06 -5.58687e-06 0.00499719 -0.00516558 -16.6139 
0 0 0 0 0 -0 -1.91016 91.1109 -9.64396 83.889 -26.5449 3.61863 15.7357 5.1072e-06 -5.51765e-07 108.317 82.7296 -107.162 8.98455 -0.406207 -4.3199e-07 6.00791 4.53989 2.07093 16.3773 -1.3905e-06 -6.99897e-07 -5.2398 0.200028 3.9692 6.45672 -1.25837e-06 -1.02172e-07 2.78406 -1.28606 4.19396 12.9942 -0.242716 4.98039 -90.3361 2.08471 -95.8403 5.34809 -7.22636e-06 -6.2814e-07 -76.2109 -6.02647 0.828407 24.3286 1.87007e-05 4.90208e-06 2.99011 12.3618 -13.7115 22.2916 -9.88446e-07 4.63217e-06 3.51329 5.13128 4.38736 12.9945 -0.242716 -4.98039 89.7506 4.5669 -101.87 -5.34813 -1.25947e-06 -3.79883e-06 -69.2138 3.59632 6.15643 -24.3289 0.000322201 -8.65921e-06 9.24812 19.2128 -26.3288 -22.2915 -0.000108084 -4.47941e-06 11.2303 5.38721 -2.52641 -2.19248 -6.46944 -1.22534e-07 -170.252 -7.40699 -11.0784 39.0811 -6.73843e-06 -1.23785e-05 -0.0107602 0.0282994 33.213 40.9854 -6.48686e-06 -1.26872e-05 -4.12729 -5.48393 -65.6696 11.7543 -2.30145e-07 3.05095e-06 0.121127 -0.137472 -17.9127 -2.19251 6.46944 -1.45247e-06 -168.357 7.3102 175.118 -39.0811 -0.00228153 -0.0401928 0.164119 -0.319382 23.3321 -40.9854 7.72618e-06 5.99936e-06 6.55845 -5.40969 -63.2456 -11.7543 -5.6619e-06 -5.58687e-06 0.00603855 -0.00624991 -16.6223 
0 0 0 0 0 -0 -1.95677 91.1702 -9.60818 84.1181 -26.9544 3.61684 15.7357 5.1072e-06 -5.51765e-07 108.323 82.878 -107.294 8.98455 -0.406207 -4.3199e-07 5.73013 4.44852 1.83376 16.3773 -1.3905e-06 -6.99897e-07 -5.0938 0.00459185 4.05189 6.45672 -1.25837e-06 -1.02172e-07 3.47866 -1.47245 4.70105 12.9942 -0.242716 4.98039 -90.3627 2.23407 -95.7803 5.34809 -7.22636e-06 -6.2814e-07 -75.9336 -6.26451 0.960953 24.3286 1.87007e-05 4.90208e-06 3.04509 12.2651 -14.0586 22.2916 -9.88446e-07 4.63217e-06 3.37353 5.12959 4.42726 12.9945 -0.242716 -4.98039 89.7366 4.68674 -101.781 -5.34813 -1.25947e-06 -3.79883e-06 -69.2198 3.9867 6.01136 -24.3289 0.000322201 -8.65921e-06 9.76495 19.04 -27.8163 -22.2915 -0.000108084 -4.47941e-06 11.8041 5.39951 -2.92063 -2.19248 -6.46944 -1.22534e-07 -170.487 -7.47877 -10.8572 39.0811 -6.73843e-06 -1.23785e-05 0.00297651 0.00779306 32.8022 40.9854 -6.48686e-06 -1.26872e-05 -4.27857 -6.10102 -65.5472 11.7543 -2.30145e-07 3.05095e-06 0.0997103 -0.112698 -17.674 -2.19251 6.46944 -1.45247e-06 -168.532 6.93598 175.228 -39.0811 -0.00228153 -0.0401928 0.16133 -0.3179 23.0856 -40.9854 7.72618e-06 5.99936e-06 6.58202 -5.37637 -63.1347 -11.7543 -5.6619e-06 -5.58687e-06 0.00623435 -0.00645335 -16.6238 
0 0 0 0 0 -0 -2.01343 91.2297 -9.61526 84.3938 -26.8366 3.5461 15.7357 5.1072e-06 -5.51765e-07 107.871 83.0413 -107.01 8.98455 -0.406207 -4.3199e-07 5.46017 4.24373 1.51901 16.3773 -1.3905e-06 -6.99897e-07 -5.00569 -0.407427 4.17908 6.45672 -1.25837e-06 -1.02172e-07 3.94606 -1.81152 5.15019 12.9942 -0.242716 4.98039 -90.3486 2.16963 -95.8699 5.34809 -7.22636e-06 -6.2814e-07 -75.7978 -6.31094 0.695208 24.3286 1.87007e-05 4.90208e-06 3.07323 12.1306 -14.3322 22.2916 -9.88446e-07 4.63217e-06 3.75827 5.1351 4.29775 12.9945 -0.242716 -4.98039 89.7313 4.64606 -101.686 -5.34813 -1.25947e-06 -3.79883e-06 -69.6271 4.09856 5.85124 -24.3289 0.000322201 -8.65921e-06 10.1188 18.8887 -28.8697 -22.2915 -0.000108084 -4.47941e-06 12.3229 5.40681 -3.1599 -2.19248 -6.46944 -1.22534e-07 -170.687 -8.00204 -10.8446 39.0811 -6.73843e-06 -1.23785e-05 0.0199981 -0.0191808 32.3586 40.9854 -6.48686e-06 -1.26872e-05 -4.12432 -5.57585 -65.2721 11.7543 -2.30145e-07 3.05095e-06 0.0921936 -0.104057 -17.5907 -2.19251 6.46944 -1.45247e-06 -168.688 6.7209 175.17 -39.0811 -0.00228153 -0.0401928 0.158613 -0.317039 22.8121 -40.9854 7.72618e-06 5.99936e-06 6.57183 -5.67777 -62.9924 -11.7543 -5.6619e-06 -5.58687e-06 0.0139893 -0.014504 -16.686 
